<svg xmlns="http://www.w3.org/2000/svg" xmlns:xlink="http://www.w3.org/1999/xlink" width="1600" zoomAndPan="magnify" viewBox="0 0 1200 284.999983" height="380" preserveAspectRatio="xMidYMid meet" version="1.0"><defs><g/><clipPath id="14d5b2e4a5"><path d="M 839.527344 28.5 L 1069.027344 28.5 L 1069.027344 256.5 L 839.527344 256.5 Z M 839.527344 28.5 " clip-rule="nonzero"/></clipPath><clipPath id="476f0fd8d2"><path d="M 877 28.5 L 1031.558594 28.5 C 1052.25 28.5 1069.027344 45.289062 1069.027344 66 L 1069.027344 219 C 1069.027344 239.710938 1052.25 256.5 1031.558594 256.5 L 877 256.5 C 856.304688 256.5 839.527344 239.710938 839.527344 219 L 839.527344 66 C 839.527344 45.289062 856.304688 28.5 877 28.5 Z M 877 28.5 " clip-rule="nonzero"/></clipPath></defs><path fill="#04c4f4" d="M 289.753906 71.792969 C 289.757812 72.597656 289.832031 72.882812 289.917969 72.429688 C 290.007812 71.976562 290.003906 71.320312 289.910156 70.96875 C 289.820312 70.621094 289.75 70.992188 289.753906 71.792969 M 278.363281 94.394531 C 277.476562 95.296875 276.832031 96.035156 276.933594 96.035156 C 277.035156 96.035156 277.839844 95.296875 278.726562 94.394531 C 279.613281 93.492188 280.253906 92.753906 280.152344 92.753906 C 280.054688 92.753906 279.246094 93.492188 278.363281 94.394531 M 259.589844 104.800781 C 259.082031 105.027344 259.300781 105.0625 260.320312 104.90625 C 261.121094 104.785156 261.84375 104.625 261.929688 104.550781 C 262.242188 104.273438 260.289062 104.480469 259.589844 104.800781 M 122.265625 106.136719 C 122.914062 106.21875 123.980469 106.21875 124.632812 106.136719 C 125.285156 106.058594 124.753906 105.992188 123.449219 105.992188 C 122.144531 105.992188 121.613281 106.058594 122.265625 106.136719 M 127.523438 106.0625 C 127.765625 106.304688 217.550781 106.300781 217.792969 106.058594 C 217.894531 105.957031 197.582031 105.875 172.65625 105.875 C 147.730469 105.875 127.421875 105.960938 127.523438 106.0625 M 218.269531 106.046875 C 218.546875 106.324219 241.136719 106.40625 241.414062 106.128906 C 241.554688 105.988281 236.363281 105.875 229.882812 105.875 C 223.402344 105.875 218.175781 105.953125 218.269531 106.046875 M 244.371094 106.140625 C 245.222656 106.21875 246.617188 106.21875 247.46875 106.140625 C 248.320312 106.066406 247.625 106.003906 245.921875 106.003906 C 244.21875 106.003906 243.519531 106.066406 244.371094 106.140625 M 249.65625 106.125 C 250.007812 106.21875 250.582031 106.21875 250.933594 106.125 C 251.285156 106.035156 250.996094 105.960938 250.292969 105.960938 C 249.59375 105.960938 249.304688 106.035156 249.65625 106.125 M 224.414062 141.757812 C 224.414062 142.246094 224.550781 142.730469 224.714844 142.832031 C 224.878906 142.933594 224.941406 142.53125 224.855469 141.941406 C 224.664062 140.636719 224.414062 140.535156 224.414062 141.757812 M 191.703125 190.691406 C 192.050781 190.78125 192.625 190.78125 192.976562 190.691406 C 193.328125 190.597656 193.042969 190.523438 192.339844 190.523438 C 191.636719 190.523438 191.351562 190.597656 191.703125 190.691406 M 123.367188 191.433594 C 124.222656 191.511719 125.535156 191.511719 126.285156 191.433594 C 127.03125 191.355469 126.328125 191.292969 124.726562 191.292969 C 123.121094 191.292969 122.511719 191.359375 123.367188 191.433594 M 114.152344 192.625 C 113.226562 193.023438 114.183594 193.023438 115.429688 192.625 C 116.164062 192.390625 116.199219 192.332031 115.613281 192.324219 C 115.210938 192.316406 114.554688 192.453125 114.152344 192.625 " fill-opacity="1" fill-rule="evenodd"/><path fill="#04c4ec" d="M 159.625 56.933594 C 160.378906 57.011719 161.609375 57.011719 162.359375 56.933594 C 163.109375 56.855469 162.496094 56.789062 160.992188 56.789062 C 159.488281 56.789062 158.875 56.855469 159.625 56.933594 M 164.367188 191.429688 C 164.921875 191.511719 165.742188 191.511719 166.191406 191.425781 C 166.640625 191.339844 166.1875 191.269531 165.183594 191.273438 C 164.183594 191.273438 163.816406 191.347656 164.367188 191.429688 " fill-opacity="1" fill-rule="evenodd"/><path fill="#04bcec" d="M 224.871094 56.578125 C 230.035156 56.632812 238.480469 56.632812 243.644531 56.578125 C 248.804688 56.519531 244.582031 56.472656 234.257812 56.472656 C 223.933594 56.472656 219.707031 56.519531 224.871094 56.578125 M 155.433594 56.925781 C 155.886719 57.011719 156.621094 57.011719 157.074219 56.925781 C 157.523438 56.839844 157.15625 56.765625 156.253906 56.765625 C 155.351562 56.765625 154.984375 56.839844 155.433594 56.925781 M 177.484375 56.941406 C 183.652344 56.996094 193.738281 56.996094 199.902344 56.941406 C 206.066406 56.882812 201.023438 56.839844 188.695312 56.839844 C 176.363281 56.839844 171.320312 56.882812 177.484375 56.941406 M 290.492188 66.691406 C 290.496094 67.695312 290.566406 68.0625 290.652344 67.507812 C 290.734375 66.953125 290.734375 66.132812 290.648438 65.683594 C 290.558594 65.234375 290.492188 65.6875 290.492188 66.691406 M 117.5625 94.484375 C 117.492188 95.238281 117.527344 97.164062 117.640625 98.765625 C 117.839844 101.578125 117.851562 101.53125 117.914062 97.402344 C 117.980469 93.179688 117.816406 91.816406 117.5625 94.484375 M 219.773438 106.5 C 220.328125 106.585938 221.148438 106.582031 221.59375 106.496094 C 222.042969 106.410156 221.589844 106.339844 220.589844 106.34375 C 219.585938 106.347656 219.21875 106.417969 219.773438 106.5 M 225.609375 154.71875 C 225.609375 155.621094 225.679688 155.988281 225.765625 155.539062 C 225.851562 155.085938 225.851562 154.347656 225.765625 153.898438 C 225.679688 153.445312 225.609375 153.816406 225.609375 154.71875 M 127.914062 191.417969 C 128.265625 191.511719 128.839844 191.511719 129.191406 191.417969 C 129.539062 191.328125 129.253906 191.253906 128.550781 191.253906 C 127.851562 191.253906 127.5625 191.328125 127.914062 191.417969 M 173.839844 191.433594 C 174.59375 191.511719 175.824219 191.511719 176.574219 191.433594 C 177.328125 191.355469 176.710938 191.289062 175.207031 191.289062 C 173.703125 191.289062 173.089844 191.355469 173.839844 191.433594 M 184.417969 191.429688 C 184.972656 191.511719 185.792969 191.511719 186.238281 191.425781 C 186.6875 191.339844 186.234375 191.269531 185.230469 191.273438 C 184.230469 191.273438 183.863281 191.347656 184.417969 191.429688 M 118.800781 192.148438 C 119.152344 192.238281 119.726562 192.238281 120.078125 192.148438 C 120.429688 192.058594 120.140625 191.980469 119.4375 191.980469 C 118.738281 191.980469 118.449219 192.058594 118.800781 192.148438 " fill-opacity="1" fill-rule="evenodd"/><path fill="#16c6ee" d="M 278.761719 44.851562 C 273.332031 50.253906 267.046875 53.753906 259.042969 55.835938 C 256.464844 56.507812 248.675781 56.644531 193.613281 57 L 150.238281 57.277344 L 146.960938 58.289062 C 145.15625 58.84375 143.433594 59.324219 143.132812 59.351562 C 142.832031 59.378906 142.503906 59.503906 142.402344 59.628906 C 142.074219 60.039062 136.996094 62.4375 136.78125 62.285156 C 136.664062 62.203125 136.648438 62.242188 136.746094 62.371094 C 136.84375 62.5 135.734375 63.441406 134.285156 64.460938 C 127.359375 69.324219 121.769531 77.285156 119.339844 85.742188 C 118.867188 87.398438 118.398438 88.675781 118.304688 88.582031 C 117.996094 88.273438 118.15625 104.214844 118.464844 104.84375 C 118.632812 105.179688 119.015625 105.550781 119.316406 105.664062 C 120.066406 105.953125 255.820312 105.960938 256.699219 105.671875 C 257.085938 105.546875 257.8125 105.292969 258.3125 105.113281 C 258.816406 104.929688 260.046875 104.613281 261.046875 104.410156 C 263.675781 103.871094 263.660156 103.875 264.199219 103.441406 C 264.675781 103.058594 266.800781 102.476562 267.289062 102.597656 C 267.421875 102.628906 267.628906 102.496094 267.75 102.300781 C 267.871094 102.109375 268.792969 101.496094 269.796875 100.941406 C 270.796875 100.386719 271.699219 99.816406 271.800781 99.675781 C 271.902344 99.53125 272.539062 99.128906 273.222656 98.78125 C 277.789062 96.441406 285.191406 86.820312 287.800781 79.835938 C 288.242188 78.648438 288.707031 77.511719 288.828125 77.316406 C 288.949219 77.121094 289.09375 76.535156 289.148438 76.015625 C 289.199219 75.5 289.441406 73.84375 289.683594 72.339844 C 291.160156 63.179688 289.636719 54.640625 285.078125 46.476562 C 282.113281 41.167969 282.394531 41.242188 278.761719 44.851562 M 228.164062 106.507812 C 229.324219 106.582031 231.128906 106.582031 232.175781 106.507812 C 233.21875 106.433594 232.269531 106.375 230.066406 106.375 C 227.859375 106.378906 227.003906 106.4375 228.164062 106.507812 M 215.824219 128.199219 C 215.273438 128.851562 214.671875 129.339844 214.488281 129.285156 C 214.304688 129.230469 214.25 129.335938 214.363281 129.519531 C 214.722656 130.105469 206.292969 136.492188 205.160156 136.492188 C 204.972656 136.492188 204.640625 136.710938 204.417969 136.980469 C 204.195312 137.25 203.3125 137.675781 202.457031 137.929688 C 201.605469 138.183594 200.734375 138.53125 200.523438 138.699219 C 199.785156 139.300781 194.105469 140.910156 191.328125 141.304688 C 189.554688 141.558594 175.820312 141.800781 154.25 141.957031 C 121.945312 142.199219 119.746094 142.253906 115.792969 142.960938 C 107.84375 144.375 98.328125 147.476562 92.285156 150.621094 C 91.480469 151.039062 90.046875 151.742188 89.09375 152.183594 C 88.140625 152.625 87.363281 153.097656 87.363281 153.238281 C 87.363281 153.375 86.832031 153.769531 86.179688 154.109375 C 85.042969 154.707031 83.863281 155.460938 80.394531 157.804688 C 79.515625 158.398438 78.675781 158.847656 78.523438 158.804688 C 78.375 158.761719 78.292969 158.867188 78.34375 159.042969 C 78.390625 159.214844 77.121094 160.421875 75.515625 161.730469 C 69.921875 166.285156 62.777344 174.429688 58.898438 180.671875 C 58.179688 181.832031 57.441406 182.65625 57.257812 182.507812 C 57.078125 182.359375 57.042969 182.378906 57.179688 182.550781 C 57.320312 182.722656 56.550781 184.609375 55.46875 186.742188 C 51.894531 193.792969 50.796875 196.511719 49.421875 201.738281 C 49.027344 203.242188 48.550781 204.800781 48.367188 205.203125 C 48.179688 205.601562 47.769531 207.652344 47.453125 209.757812 C 47.136719 211.863281 46.679688 214.570312 46.433594 215.773438 C 45.175781 221.984375 46.40625 239.230469 48.609375 246.296875 C 49.148438 248.027344 50.183594 248.09375 50.183594 246.394531 C 50.183594 246.066406 50.332031 245.890625 50.507812 246 C 50.6875 246.109375 50.820312 245.996094 50.808594 245.75 C 50.769531 244.910156 51.367188 242.925781 51.660156 242.925781 C 51.816406 242.925781 52.058594 242.433594 52.191406 241.832031 C 52.320312 241.226562 52.578125 240.824219 52.761719 240.9375 C 52.945312 241.050781 52.992188 240.886719 52.875 240.574219 C 52.753906 240.257812 52.863281 239.75 53.117188 239.445312 C 53.371094 239.136719 53.957031 238.074219 54.417969 237.082031 C 54.878906 236.085938 55.453125 235.273438 55.695312 235.273438 C 55.9375 235.273438 56.03125 235.167969 55.898438 235.035156 C 55.492188 234.628906 60.066406 227.222656 62.503906 224.335938 C 62.929688 223.835938 63.921875 222.65625 64.710938 221.71875 C 65.5 220.777344 66.246094 220.109375 66.367188 220.230469 C 66.488281 220.351562 66.585938 220.179688 66.585938 219.84375 C 66.585938 219.210938 70.984375 214.632812 74 212.125 C 74.964844 211.324219 75.945312 210.5 76.183594 210.296875 C 78.945312 207.894531 86.746094 202.46875 87.433594 202.46875 C 87.632812 202.46875 88.273438 202.128906 88.855469 201.714844 C 89.433594 201.300781 90.074219 201.066406 90.277344 201.191406 C 90.480469 201.316406 90.644531 201.160156 90.644531 200.847656 C 90.644531 200.535156 90.910156 200.28125 91.238281 200.28125 C 91.566406 200.28125 92.34375 199.96875 92.96875 199.585938 C 93.59375 199.199219 94.433594 198.832031 94.835938 198.765625 C 95.238281 198.695312 95.730469 198.453125 95.929688 198.226562 C 96.128906 197.996094 97.15625 197.535156 98.207031 197.195312 C 99.257812 196.855469 100.121094 196.460938 100.121094 196.320312 C 100.121094 196.179688 100.496094 196.035156 100.957031 195.996094 C 101.417969 195.957031 102.5 195.679688 103.363281 195.371094 C 104.230469 195.066406 105.082031 194.910156 105.261719 195.019531 C 105.441406 195.128906 105.589844 195.0625 105.589844 194.871094 C 105.589844 194.679688 106.449219 194.320312 107.503906 194.074219 C 108.554688 193.824219 109.660156 193.496094 109.960938 193.34375 C 110.261719 193.1875 111.378906 192.96875 112.441406 192.855469 C 113.5 192.742188 114.519531 192.558594 114.699219 192.445312 C 115.976562 191.65625 124.59375 191.390625 156.253906 191.167969 C 175.199219 191.035156 191.191406 190.808594 191.792969 190.660156 C 192.394531 190.515625 194.035156 190.148438 195.4375 189.847656 C 196.839844 189.546875 198.445312 189.050781 199 188.75 C 199.554688 188.449219 200.457031 188.121094 201.003906 188.023438 C 201.550781 187.925781 202.054688 187.691406 202.121094 187.5 C 202.1875 187.3125 202.4375 187.160156 202.675781 187.160156 C 203.476562 187.160156 209.457031 183.285156 211.714844 181.304688 C 214.359375 178.988281 214.300781 179.046875 216.394531 176.554688 C 217.296875 175.480469 218.324219 174.3125 218.675781 173.957031 C 219.023438 173.597656 219.226562 173.308594 219.121094 173.308594 C 219.011719 173.308594 219.332031 172.609375 219.824219 171.757812 C 222.453125 167.214844 223.789062 163.964844 224.277344 160.902344 C 224.410156 160.074219 224.714844 159.320312 224.953125 159.226562 C 225.589844 158.984375 225.511719 143.640625 224.871094 143 C 224.621094 142.75 224.414062 142.125 224.410156 141.613281 C 224.40625 140.011719 222.402344 134.433594 221.132812 132.484375 C 220.9375 132.183594 220.425781 131.28125 219.996094 130.480469 C 217.972656 126.695312 217.375 126.367188 215.824219 128.199219 " fill-opacity="1" fill-rule="evenodd"/><path fill="#04b4e6" d="M 278.714844 44.546875 L 276.722656 46.644531 L 278.816406 44.652344 C 279.96875 43.554688 280.914062 42.613281 280.914062 42.554688 C 280.914062 42.285156 280.566406 42.601562 278.714844 44.546875 M 268.792969 51.773438 C 267.429688 52.511719 267.515625 52.820312 268.882812 52.113281 C 269.484375 51.800781 269.976562 51.46875 269.976562 51.375 C 269.976562 51.136719 269.9375 51.152344 268.792969 51.773438 M 259.773438 55.210938 C 259.019531 55.449219 258.988281 55.507812 259.589844 55.53125 C 259.992188 55.550781 260.566406 55.402344 260.867188 55.210938 C 261.503906 54.796875 261.058594 54.796875 259.773438 55.210938 M 212.484375 56.566406 C 213.039062 56.648438 213.859375 56.648438 214.304688 56.558594 C 214.753906 56.472656 214.300781 56.40625 213.296875 56.40625 C 212.296875 56.410156 211.929688 56.480469 212.484375 56.566406 M 152.519531 56.925781 C 152.96875 57.011719 153.707031 57.011719 154.15625 56.925781 C 154.609375 56.839844 154.238281 56.765625 153.339844 56.765625 C 152.4375 56.765625 152.066406 56.839844 152.519531 56.925781 M 149.328125 57.414062 C 148.929688 57.683594 149.078125 57.71875 149.875 57.539062 C 151.214844 57.238281 151.507812 57.03125 150.574219 57.039062 C 150.191406 57.039062 149.628906 57.210938 149.328125 57.414062 M 129.085938 68.421875 L 127.277344 70.335938 L 129.191406 68.527344 C 130.242188 67.53125 131.101562 66.671875 131.101562 66.613281 C 131.101562 66.34375 130.765625 66.644531 129.085938 68.421875 M 126.503906 71.339844 C 125.425781 72.566406 124.796875 73.433594 124.984375 73.433594 C 125.074219 73.433594 125.675781 72.777344 126.320312 71.976562 C 127.574219 70.421875 127.699219 69.972656 126.503906 71.339844 M 117.34375 97.308594 C 117.347656 98.113281 117.421875 98.398438 117.511719 97.941406 C 117.597656 97.488281 117.59375 96.832031 117.503906 96.484375 C 117.410156 96.136719 117.339844 96.507812 117.34375 97.308594 M 118.023438 104.300781 C 117.96875 105.320312 118.90625 106.253906 119.921875 106.191406 L 120.714844 106.140625 L 119.921875 105.988281 C 119.011719 105.808594 118.5 105.277344 118.246094 104.234375 C 118.078125 103.554688 118.0625 103.5625 118.023438 104.300781 M 122.269531 106.503906 C 122.925781 106.585938 123.910156 106.582031 124.457031 106.5 C 125.003906 106.417969 124.46875 106.351562 123.265625 106.351562 C 122.0625 106.355469 121.617188 106.421875 122.269531 106.503906 M 210.109375 106.507812 C 211.363281 106.582031 213.410156 106.582031 214.664062 106.507812 C 215.917969 106.4375 214.894531 106.378906 212.386719 106.378906 C 209.882812 106.378906 208.855469 106.4375 210.109375 106.507812 M 223.238281 106.503906 C 223.890625 106.585938 224.875 106.582031 225.425781 106.5 C 225.972656 106.417969 225.4375 106.351562 224.234375 106.351562 C 223.03125 106.355469 222.582031 106.421875 223.238281 106.503906 M 234.535156 106.496094 C 234.988281 106.585938 235.644531 106.582031 235.992188 106.492188 C 236.339844 106.398438 235.96875 106.328125 235.167969 106.332031 C 234.367188 106.335938 234.082031 106.410156 234.535156 106.496094 M 242.183594 106.496094 C 242.636719 106.585938 243.375 106.585938 243.824219 106.496094 C 244.277344 106.410156 243.90625 106.339844 243.003906 106.339844 C 242.101562 106.339844 241.734375 106.410156 242.183594 106.496094 M 215.507812 128.019531 C 214.722656 129.027344 214.660156 129.195312 215.269531 128.660156 C 216 128.023438 216.964844 126.652344 216.683594 126.652344 C 216.625 126.652344 216.097656 127.265625 215.507812 128.019531 M 190.609375 141.117188 C 190.957031 141.210938 191.53125 141.210938 191.882812 141.117188 C 192.234375 141.027344 191.949219 140.953125 191.246094 140.953125 C 190.542969 140.953125 190.257812 141.027344 190.609375 141.117188 M 138.667969 141.871094 C 146.9375 141.925781 160.46875 141.925781 168.738281 141.871094 C 177.007812 141.816406 170.242188 141.769531 153.703125 141.769531 C 137.164062 141.769531 130.398438 141.816406 138.667969 141.871094 M 225.59375 149.613281 C 225.59375 150.316406 225.667969 150.605469 225.761719 150.253906 C 225.851562 149.902344 225.851562 149.328125 225.761719 148.976562 C 225.667969 148.625 225.59375 148.914062 225.59375 149.613281 M 70.042969 166.472656 L 66.039062 170.574219 L 70.140625 166.570312 C 73.949219 162.851562 74.40625 162.371094 74.144531 162.371094 C 74.089844 162.371094 72.246094 164.21875 70.042969 166.472656 M 61.484375 176.222656 C 61.054688 176.824219 60.789062 177.316406 60.886719 177.316406 C 60.988281 177.316406 61.421875 176.824219 61.847656 176.222656 C 62.277344 175.621094 62.542969 175.128906 62.445312 175.128906 C 62.34375 175.128906 61.914062 175.621094 61.484375 176.222656 M 133.933594 191.433594 C 134.589844 191.511719 135.574219 191.511719 136.121094 191.429688 C 136.667969 191.347656 136.132812 191.28125 134.929688 191.28125 C 133.726562 191.28125 133.28125 191.351562 133.933594 191.433594 M 145.429688 191.441406 C 148 191.503906 152.097656 191.503906 154.542969 191.441406 C 156.988281 191.378906 154.886719 191.324219 149.875 191.324219 C 144.863281 191.328125 142.863281 191.378906 145.429688 191.441406 M 168.910156 191.429688 C 169.558594 191.511719 170.707031 191.511719 171.464844 191.433594 C 172.21875 191.355469 171.691406 191.289062 170.289062 191.289062 C 168.882812 191.285156 168.265625 191.351562 168.910156 191.429688 M 45.554688 222.515625 C 45.554688 223.617188 45.625 224.070312 45.707031 223.515625 C 45.789062 222.964844 45.789062 222.0625 45.707031 221.511719 C 45.625 220.960938 45.554688 221.414062 45.554688 222.515625 M 45.558594 227.4375 C 45.5625 228.640625 45.628906 229.085938 45.710938 228.433594 C 45.792969 227.777344 45.789062 226.792969 45.707031 226.246094 C 45.625 225.699219 45.558594 226.234375 45.558594 227.4375 M 48.371094 247.140625 C 48.339844 248.261719 49.261719 248.789062 49.785156 247.945312 C 50.25 247.203125 50.242188 247.167969 49.726562 247.59375 C 49.242188 247.992188 49.089844 247.964844 48.765625 247.414062 C 48.554688 247.050781 48.378906 246.929688 48.371094 247.140625 " fill-opacity="1" fill-rule="evenodd"/><g fill="#000000" fill-opacity="1"><g transform="translate(357.500157, 227.999967)"><g><path d="M 81.25 -152.25 C 61.582031 -154.082031 51.75 -145.832031 51.75 -127.5 L 51.75 -125 L 81.25 -125 L 81.25 -99 L 51.75 -99 L 51.75 0 L 24.75 0 L 24.75 -99 L 5.75 -99 L 5.75 -125 L 24.75 -125 L 24.75 -127.5 C 24.75 -144.664062 29.539062 -157.707031 39.125 -166.625 C 48.707031 -175.539062 62.75 -179.414062 81.25 -178.25 Z M 81.25 -152.25 "/></g></g></g><g fill="#000000" fill-opacity="1"><g transform="translate(438.749161, 227.999967)"><g><path d="M 15.75 0 L 15.75 -182.5 L 42.75 -182.5 L 42.75 0 Z M 15.75 0 "/></g></g></g><g fill="#000000" fill-opacity="1"><g transform="translate(496.99846, 227.999967)"><g><path d="M 114.75 -125 L 141.75 -125 L 141.75 0 L 114.75 0 L 114.75 -18 C 104.582031 -3.832031 90 3.25 71 3.25 C 53.832031 3.25 39.164062 -3.125 27 -15.875 C 14.832031 -28.625 8.75 -44.164062 8.75 -62.5 C 8.75 -81 14.832031 -96.582031 27 -109.25 C 39.164062 -121.914062 53.832031 -128.25 71 -128.25 C 90 -128.25 104.582031 -121.25 114.75 -107.25 Z M 47 -33.875 C 54.5 -26.289062 63.914062 -22.5 75.25 -22.5 C 86.582031 -22.5 96 -26.289062 103.5 -33.875 C 111 -41.457031 114.75 -51 114.75 -62.5 C 114.75 -74 111 -83.539062 103.5 -91.125 C 96 -98.707031 86.582031 -102.5 75.25 -102.5 C 63.914062 -102.5 54.5 -98.707031 47 -91.125 C 39.5 -83.539062 35.75 -74 35.75 -62.5 C 35.75 -51 39.5 -41.457031 47 -33.875 Z M 47 -33.875 "/></g></g></g><g fill="#000000" fill-opacity="1"><g transform="translate(654.4966, 227.999967)"><g><path d="M 41.375 -148.875 C 37.957031 -145.457031 33.914062 -143.75 29.25 -143.75 C 24.582031 -143.75 20.539062 -145.457031 17.125 -148.875 C 13.707031 -152.289062 12 -156.332031 12 -161 C 12 -165.664062 13.664062 -169.707031 17 -173.125 C 20.332031 -176.539062 24.414062 -178.25 29.25 -178.25 C 34.082031 -178.25 38.164062 -176.539062 41.5 -173.125 C 44.832031 -169.707031 46.5 -165.664062 46.5 -161 C 46.5 -156.332031 44.789062 -152.289062 41.375 -148.875 Z M 15.75 0 L 15.75 -125 L 42.75 -125 L 42.75 0 Z M 15.75 0 "/></g></g></g><g fill="#000000" fill-opacity="1"><g transform="translate(712.745899, 227.999967)"><g><path d="M 42.75 -104 C 49.582031 -119.5 62.414062 -127.25 81.25 -127.25 L 81.25 -98 C 70.914062 -98.664062 61.914062 -96.207031 54.25 -90.625 C 46.582031 -85.039062 42.75 -75.832031 42.75 -63 L 42.75 0 L 15.75 0 L 15.75 -125 L 42.75 -125 Z M 42.75 -104 "/></g></g></g><g clip-path="url(#14d5b2e4a5)"><g clip-path="url(#476f0fd8d2)"><path stroke-linecap="butt" transform="matrix(0.749426, 0, 0, 0.75, 839.527799, 28.501207)" fill="none" stroke-linejoin="miter" d="M 50.001207 -0.00160874 L 256.237187 -0.00160874 C 283.846862 -0.00160874 306.233789 22.38381 306.233789 49.998396 L 306.233789 253.998417 C 306.233789 281.613003 283.846862 303.998422 256.237187 303.998422 L 50.001207 303.998422 C 22.38632 303.998422 -0.000607107 281.613003 -0.000607107 253.998417 L -0.000607107 49.998396 C -0.000607107 22.38381 22.38632 -0.00160874 50.001207 -0.00160874 Z M 50.001207 -0.00160874 " stroke="#000000" stroke-width="24" stroke-opacity="1" stroke-miterlimit="4"/></g></g><g fill="#000000" fill-opacity="1"><g transform="translate(869.803772, 208.94263)"><g><path d="M 96.40625 -9.9375 C 87.25 -1.695312 75.425781 2.421875 60.9375 2.421875 C 46.445312 2.421875 34.617188 -1.695312 25.453125 -9.9375 C 16.285156 -18.175781 11.703125 -29.226562 11.703125 -43.09375 L 11.703125 -130.03125 L 33.0625 -130.03125 L 33.0625 -44.390625 C 33.0625 -36.472656 35.382812 -30.160156 40.03125 -25.453125 C 44.675781 -20.742188 51.640625 -18.390625 60.921875 -18.390625 C 70.210938 -18.390625 77.179688 -20.742188 81.828125 -25.453125 C 86.472656 -30.160156 88.796875 -36.472656 88.796875 -44.390625 L 88.796875 -130.03125 L 110.15625 -130.03125 L 110.15625 -43.09375 C 110.15625 -29.226562 105.570312 -18.175781 96.40625 -9.9375 Z M 96.40625 -9.9375 "/></g></g></g><g fill="#000000" fill-opacity="1"><g transform="translate(991.482838, 208.94263)"><g><path d="M 13 -130.03125 L 34.359375 -130.03125 L 34.359375 0 L 13 0 Z M 13 -130.03125 "/></g></g></g></svg>