<svg xmlns="http://www.w3.org/2000/svg" xmlns:xlink="http://www.w3.org/1999/xlink" width="1600" zoomAndPan="magnify" viewBox="0 0 1200 284.999983" height="380" preserveAspectRatio="xMidYMid meet" version="1.0"><defs><g/><clipPath id="6a0c7a4cdb"><path d="M 897.375 22.867188 L 1126.875 22.867188 L 1126.875 250.863281 L 897.375 250.863281 Z M 897.375 22.867188 " clip-rule="nonzero"/></clipPath><clipPath id="114ac0d705"><path d="M 934.84375 22.867188 L 1089.402344 22.867188 C 1110.097656 22.867188 1126.875 39.65625 1126.875 60.367188 L 1126.875 213.363281 C 1126.875 234.074219 1110.097656 250.863281 1089.402344 250.863281 L 934.84375 250.863281 C 914.148438 250.863281 897.375 234.074219 897.375 213.363281 L 897.375 60.367188 C 897.375 39.65625 914.148438 22.867188 934.84375 22.867188 Z M 934.84375 22.867188 " clip-rule="nonzero"/></clipPath></defs><path fill="#04c4f4" d="M 298.367188 71.792969 C 298.371094 72.597656 298.445312 72.882812 298.535156 72.429688 C 298.621094 71.976562 298.617188 71.320312 298.527344 70.96875 C 298.4375 70.621094 298.363281 70.992188 298.367188 71.792969 M 286.976562 94.394531 C 286.089844 95.296875 285.449219 96.035156 285.546875 96.035156 C 285.648438 96.035156 286.457031 95.296875 287.339844 94.394531 C 288.226562 93.492188 288.871094 92.753906 288.769531 92.753906 C 288.667969 92.753906 287.863281 93.492188 286.976562 94.394531 M 268.203125 104.800781 C 267.695312 105.027344 267.917969 105.0625 268.933594 104.90625 C 269.734375 104.785156 270.460938 104.625 270.542969 104.550781 C 270.855469 104.273438 268.90625 104.480469 268.203125 104.800781 M 130.878906 106.136719 C 131.53125 106.21875 132.597656 106.21875 133.25 106.136719 C 133.902344 106.058594 133.367188 105.992188 132.0625 105.992188 C 130.761719 105.992188 130.226562 106.058594 130.878906 106.136719 M 136.136719 106.0625 C 136.378906 106.304688 226.164062 106.300781 226.40625 106.058594 C 226.507812 105.957031 206.195312 105.875 181.273438 105.875 C 156.347656 105.875 136.035156 105.960938 136.136719 106.0625 M 226.882812 106.046875 C 227.164062 106.324219 249.753906 106.40625 250.03125 106.128906 C 250.167969 105.988281 244.980469 105.875 238.5 105.875 C 232.015625 105.875 226.789062 105.953125 226.882812 106.046875 M 252.988281 106.140625 C 253.839844 106.21875 255.234375 106.21875 256.085938 106.140625 C 256.9375 106.066406 256.242188 106.003906 254.535156 106.003906 C 252.832031 106.003906 252.136719 106.066406 252.988281 106.140625 M 258.273438 106.125 C 258.625 106.21875 259.199219 106.21875 259.546875 106.125 C 259.898438 106.035156 259.613281 105.960938 258.910156 105.960938 C 258.207031 105.960938 257.921875 106.035156 258.273438 106.125 M 233.03125 141.757812 C 233.03125 142.246094 233.164062 142.730469 233.328125 142.832031 C 233.492188 142.933594 233.554688 142.53125 233.46875 141.941406 C 233.277344 140.636719 233.03125 140.535156 233.03125 141.757812 M 200.316406 190.691406 C 200.667969 190.78125 201.242188 190.78125 201.59375 190.691406 C 201.945312 190.597656 201.65625 190.523438 200.953125 190.523438 C 200.253906 190.523438 199.964844 190.597656 200.316406 190.691406 M 131.984375 191.433594 C 132.839844 191.511719 134.152344 191.511719 134.898438 191.433594 C 135.644531 191.355469 134.945312 191.292969 133.339844 191.292969 C 131.734375 191.292969 131.125 191.359375 131.984375 191.433594 M 122.769531 192.625 C 121.839844 193.023438 122.796875 193.023438 124.046875 192.625 C 124.777344 192.390625 124.8125 192.332031 124.226562 192.324219 C 123.828125 192.316406 123.171875 192.453125 122.769531 192.625 " fill-opacity="1" fill-rule="evenodd"/><path fill="#04c4ec" d="M 168.242188 56.933594 C 168.992188 57.011719 170.222656 57.011719 170.976562 56.933594 C 171.726562 56.855469 171.109375 56.789062 169.609375 56.789062 C 168.105469 56.789062 167.488281 56.855469 168.242188 56.933594 M 172.984375 191.429688 C 173.539062 191.511719 174.359375 191.511719 174.804688 191.425781 C 175.253906 191.339844 174.800781 191.269531 173.800781 191.273438 C 172.796875 191.273438 172.429688 191.347656 172.984375 191.429688 " fill-opacity="1" fill-rule="evenodd"/><path fill="#04bcec" d="M 233.488281 56.578125 C 238.648438 56.632812 247.097656 56.632812 252.257812 56.578125 C 257.421875 56.519531 253.195312 56.472656 242.871094 56.472656 C 232.546875 56.472656 228.324219 56.519531 233.488281 56.578125 M 164.050781 56.925781 C 164.5 57.011719 165.238281 57.011719 165.6875 56.925781 C 166.140625 56.839844 165.769531 56.765625 164.871094 56.765625 C 163.96875 56.765625 163.597656 56.839844 164.050781 56.925781 M 186.101562 56.941406 C 192.265625 56.996094 202.355469 56.996094 208.519531 56.941406 C 214.683594 56.882812 209.640625 56.839844 197.308594 56.839844 C 184.980469 56.839844 179.9375 56.882812 186.101562 56.941406 M 299.109375 66.691406 C 299.113281 67.695312 299.183594 68.0625 299.265625 67.507812 C 299.351562 66.953125 299.347656 66.132812 299.261719 65.683594 C 299.175781 65.234375 299.105469 65.6875 299.109375 66.691406 M 126.179688 94.484375 C 126.109375 95.238281 126.144531 97.164062 126.257812 98.765625 C 126.457031 101.578125 126.464844 101.53125 126.53125 97.402344 C 126.597656 93.179688 126.433594 91.816406 126.179688 94.484375 M 228.386719 106.5 C 228.941406 106.585938 229.761719 106.582031 230.210938 106.496094 C 230.660156 106.410156 230.207031 106.339844 229.203125 106.34375 C 228.199219 106.347656 227.832031 106.417969 228.386719 106.5 M 234.222656 154.71875 C 234.222656 155.621094 234.292969 155.988281 234.382812 155.539062 C 234.46875 155.085938 234.46875 154.347656 234.382812 153.898438 C 234.292969 153.445312 234.222656 153.816406 234.222656 154.71875 M 136.53125 191.417969 C 136.878906 191.511719 137.453125 191.511719 137.804688 191.417969 C 138.15625 191.328125 137.867188 191.253906 137.167969 191.253906 C 136.464844 191.253906 136.179688 191.328125 136.53125 191.417969 M 182.457031 191.433594 C 183.207031 191.511719 184.4375 191.511719 185.191406 191.433594 C 185.941406 191.355469 185.328125 191.289062 183.824219 191.289062 C 182.320312 191.289062 181.703125 191.355469 182.457031 191.433594 M 193.03125 191.429688 C 193.585938 191.511719 194.40625 191.511719 194.855469 191.425781 C 195.300781 191.339844 194.847656 191.269531 193.847656 191.273438 C 192.84375 191.273438 192.476562 191.347656 193.03125 191.429688 M 127.417969 192.148438 C 127.769531 192.238281 128.34375 192.238281 128.691406 192.148438 C 129.042969 192.058594 128.757812 191.980469 128.054688 191.980469 C 127.351562 191.980469 127.066406 192.058594 127.417969 192.148438 " fill-opacity="1" fill-rule="evenodd"/><path fill="#16c6ee" d="M 287.378906 44.851562 C 281.945312 50.253906 275.660156 53.753906 267.660156 55.835938 C 265.082031 56.507812 257.292969 56.644531 202.230469 57 L 158.855469 57.277344 L 155.574219 58.289062 C 153.769531 58.84375 152.046875 59.324219 151.746094 59.351562 C 151.445312 59.378906 151.117188 59.503906 151.019531 59.628906 C 150.691406 60.039062 145.609375 62.4375 145.394531 62.285156 C 145.28125 62.203125 145.265625 62.242188 145.363281 62.371094 C 145.457031 62.5 144.351562 63.441406 142.902344 64.460938 C 135.976562 69.324219 130.386719 77.285156 127.957031 85.742188 C 127.480469 87.398438 127.015625 88.675781 126.921875 88.582031 C 126.613281 88.273438 126.769531 104.214844 127.082031 104.84375 C 127.246094 105.179688 127.628906 105.550781 127.933594 105.664062 C 128.683594 105.953125 264.433594 105.960938 265.316406 105.671875 C 265.703125 105.546875 266.429688 105.292969 266.929688 105.113281 C 267.429688 104.929688 268.660156 104.613281 269.664062 104.410156 C 272.289062 103.871094 272.277344 103.875 272.816406 103.441406 C 273.289062 103.058594 275.414062 102.476562 275.902344 102.597656 C 276.035156 102.628906 276.242188 102.496094 276.367188 102.300781 C 276.488281 102.109375 277.410156 101.496094 278.410156 100.941406 C 279.414062 100.386719 280.316406 99.816406 280.414062 99.675781 C 280.515625 99.53125 281.15625 99.128906 281.835938 98.78125 C 286.40625 96.441406 293.808594 86.820312 296.414062 79.835938 C 296.859375 78.648438 297.320312 77.511719 297.445312 77.316406 C 297.566406 77.121094 297.707031 76.535156 297.761719 76.015625 C 297.816406 75.5 298.058594 73.84375 298.300781 72.339844 C 299.773438 63.179688 298.253906 54.640625 293.691406 46.476562 C 290.726562 41.167969 291.011719 41.242188 287.378906 44.851562 M 236.78125 106.507812 C 237.941406 106.582031 239.746094 106.582031 240.789062 106.507812 C 241.835938 106.433594 240.886719 106.375 238.679688 106.375 C 236.476562 106.378906 235.621094 106.4375 236.78125 106.507812 M 224.4375 128.199219 C 223.886719 128.851562 223.285156 129.339844 223.105469 129.285156 C 222.921875 129.230469 222.863281 129.335938 222.976562 129.519531 C 223.339844 130.105469 214.90625 136.492188 213.773438 136.492188 C 213.589844 136.492188 213.253906 136.710938 213.03125 136.980469 C 212.808594 137.25 211.929688 137.675781 211.074219 137.929688 C 210.21875 138.183594 209.347656 138.53125 209.140625 138.699219 C 208.402344 139.300781 202.722656 140.910156 199.941406 141.304688 C 198.171875 141.558594 184.4375 141.800781 162.863281 141.957031 C 130.5625 142.199219 128.363281 142.253906 124.410156 142.960938 C 116.460938 144.375 106.941406 147.476562 100.898438 150.621094 C 100.097656 151.039062 98.664062 151.742188 97.710938 152.183594 C 96.757812 152.625 95.980469 153.097656 95.980469 153.238281 C 95.980469 153.375 95.445312 153.769531 94.792969 154.109375 C 93.65625 154.707031 92.476562 155.460938 89.011719 157.804688 C 88.132812 158.398438 87.289062 158.847656 87.140625 158.804688 C 86.988281 158.761719 86.90625 158.867188 86.957031 159.042969 C 87.007812 159.214844 85.734375 160.421875 84.132812 161.730469 C 78.539062 166.285156 71.390625 174.429688 67.515625 180.671875 C 66.796875 181.832031 66.058594 182.65625 65.875 182.507812 C 65.691406 182.359375 65.65625 182.378906 65.796875 182.550781 C 65.9375 182.722656 65.164062 184.609375 64.082031 186.742188 C 60.507812 193.792969 59.414062 196.511719 58.035156 201.738281 C 57.640625 203.242188 57.167969 204.800781 56.980469 205.203125 C 56.796875 205.601562 56.386719 207.652344 56.070312 209.757812 C 55.753906 211.863281 55.292969 214.570312 55.050781 215.773438 C 53.792969 221.984375 55.019531 239.230469 57.222656 246.296875 C 57.765625 248.027344 58.800781 248.09375 58.800781 246.394531 C 58.800781 246.066406 58.945312 245.890625 59.125 246 C 59.300781 246.109375 59.4375 245.996094 59.425781 245.75 C 59.382812 244.910156 59.980469 242.925781 60.273438 242.925781 C 60.433594 242.925781 60.671875 242.433594 60.804688 241.832031 C 60.9375 241.226562 61.195312 240.824219 61.375 240.9375 C 61.558594 241.050781 61.609375 240.886719 61.488281 240.574219 C 61.367188 240.257812 61.476562 239.75 61.730469 239.445312 C 61.988281 239.136719 62.570312 238.074219 63.03125 237.082031 C 63.492188 236.085938 64.066406 235.273438 64.3125 235.273438 C 64.554688 235.273438 64.644531 235.167969 64.515625 235.035156 C 64.109375 234.628906 68.679688 227.222656 71.117188 224.335938 C 71.542969 223.835938 72.535156 222.65625 73.324219 221.71875 C 74.113281 220.777344 74.859375 220.109375 74.980469 220.230469 C 75.101562 220.351562 75.203125 220.179688 75.203125 219.84375 C 75.203125 219.210938 79.601562 214.632812 82.617188 212.125 C 83.582031 211.324219 84.5625 210.5 84.796875 210.296875 C 87.5625 207.894531 95.363281 202.46875 96.050781 202.46875 C 96.25 202.46875 96.886719 202.128906 97.46875 201.714844 C 98.050781 201.300781 98.691406 201.066406 98.890625 201.191406 C 99.09375 201.316406 99.257812 201.160156 99.257812 200.847656 C 99.257812 200.535156 99.527344 200.28125 99.855469 200.28125 C 100.179688 200.28125 100.960938 199.96875 101.585938 199.585938 C 102.210938 199.199219 103.050781 198.832031 103.449219 198.765625 C 103.851562 198.695312 104.34375 198.453125 104.542969 198.226562 C 104.746094 197.996094 105.769531 197.535156 106.824219 197.195312 C 107.875 196.855469 108.734375 196.460938 108.734375 196.320312 C 108.734375 196.179688 109.113281 196.035156 109.574219 195.996094 C 110.03125 195.957031 111.117188 195.679688 111.980469 195.371094 C 112.84375 195.066406 113.699219 194.910156 113.878906 195.019531 C 114.058594 195.128906 114.203125 195.0625 114.203125 194.871094 C 114.203125 194.679688 115.066406 194.320312 116.117188 194.074219 C 117.167969 193.824219 118.277344 193.496094 118.578125 193.34375 C 118.878906 193.1875 119.992188 192.96875 121.054688 192.855469 C 122.117188 192.742188 123.132812 192.558594 123.316406 192.445312 C 124.59375 191.65625 133.207031 191.390625 164.871094 191.167969 C 183.8125 191.035156 199.804688 190.808594 200.40625 190.660156 C 201.007812 190.515625 202.648438 190.148438 204.054688 189.847656 C 205.457031 189.546875 207.058594 189.050781 207.613281 188.75 C 208.171875 188.449219 209.074219 188.121094 209.621094 188.023438 C 210.167969 187.925781 210.667969 187.691406 210.734375 187.5 C 210.800781 187.3125 211.050781 187.160156 211.289062 187.160156 C 212.089844 187.160156 218.074219 183.285156 220.332031 181.304688 C 222.972656 178.988281 222.917969 179.046875 225.011719 176.554688 C 225.914062 175.480469 226.9375 174.3125 227.289062 173.957031 C 227.640625 173.597656 227.839844 173.308594 227.734375 173.308594 C 227.628906 173.308594 227.945312 172.609375 228.4375 171.757812 C 231.070312 167.214844 232.402344 163.964844 232.890625 160.902344 C 233.023438 160.074219 233.332031 159.320312 233.570312 159.226562 C 234.207031 158.984375 234.128906 143.640625 233.488281 143 C 233.234375 142.75 233.027344 142.125 233.027344 141.613281 C 233.019531 140.011719 231.015625 134.433594 229.75 132.484375 C 229.554688 132.183594 229.042969 131.28125 228.613281 130.480469 C 226.585938 126.695312 225.988281 126.367188 224.4375 128.199219 " fill-opacity="1" fill-rule="evenodd"/><path fill="#04b4e6" d="M 287.328125 44.546875 L 285.335938 46.644531 L 287.433594 44.652344 C 288.585938 43.554688 289.527344 42.613281 289.527344 42.554688 C 289.527344 42.285156 289.179688 42.601562 287.328125 44.546875 M 277.410156 51.773438 C 276.046875 52.511719 276.128906 52.820312 277.5 52.113281 C 278.101562 51.800781 278.59375 51.46875 278.59375 51.375 C 278.59375 51.136719 278.554688 51.152344 277.410156 51.773438 M 268.386719 55.210938 C 267.636719 55.449219 267.605469 55.507812 268.203125 55.53125 C 268.605469 55.550781 269.179688 55.402344 269.480469 55.210938 C 270.121094 54.796875 269.675781 54.796875 268.386719 55.210938 M 221.097656 56.566406 C 221.652344 56.648438 222.472656 56.648438 222.921875 56.558594 C 223.367188 56.472656 222.914062 56.40625 221.914062 56.40625 C 220.910156 56.410156 220.542969 56.480469 221.097656 56.566406 M 161.132812 56.925781 C 161.585938 57.011719 162.324219 57.011719 162.773438 56.925781 C 163.222656 56.839844 162.855469 56.765625 161.953125 56.765625 C 161.050781 56.765625 160.683594 56.839844 161.132812 56.925781 M 157.945312 57.414062 C 157.542969 57.683594 157.691406 57.71875 158.492188 57.539062 C 159.832031 57.238281 160.121094 57.03125 159.1875 57.039062 C 158.804688 57.039062 158.246094 57.210938 157.945312 57.414062 M 137.699219 68.421875 L 135.890625 70.335938 L 137.804688 68.527344 C 138.859375 67.53125 139.71875 66.671875 139.71875 66.613281 C 139.71875 66.34375 139.378906 66.644531 137.699219 68.421875 M 135.117188 71.339844 C 134.042969 72.566406 133.414062 73.433594 133.597656 73.433594 C 133.691406 73.433594 134.292969 72.777344 134.9375 71.976562 C 136.1875 70.421875 136.3125 69.972656 135.117188 71.339844 M 125.960938 97.308594 C 125.964844 98.113281 126.039062 98.398438 126.125 97.941406 C 126.214844 97.488281 126.210938 96.832031 126.117188 96.484375 C 126.027344 96.136719 125.957031 96.507812 125.960938 97.308594 M 126.640625 104.300781 C 126.585938 105.320312 127.519531 106.253906 128.535156 106.191406 L 129.332031 106.140625 L 128.535156 105.988281 C 127.625 105.808594 127.117188 105.277344 126.859375 104.234375 C 126.695312 103.554688 126.679688 103.5625 126.640625 104.300781 M 130.886719 106.503906 C 131.542969 106.585938 132.523438 106.582031 133.074219 106.5 C 133.621094 106.417969 133.085938 106.351562 131.882812 106.351562 C 130.679688 106.355469 130.230469 106.421875 130.886719 106.503906 M 218.722656 106.507812 C 219.976562 106.582031 222.027344 106.582031 223.28125 106.507812 C 224.535156 106.4375 223.507812 106.378906 221.003906 106.378906 C 218.496094 106.378906 217.472656 106.4375 218.722656 106.507812 M 231.851562 106.503906 C 232.507812 106.585938 233.492188 106.582031 234.039062 106.5 C 234.585938 106.417969 234.050781 106.351562 232.847656 106.351562 C 231.644531 106.355469 231.199219 106.421875 231.851562 106.503906 M 243.148438 106.496094 C 243.601562 106.585938 244.257812 106.582031 244.609375 106.492188 C 244.957031 106.398438 244.585938 106.328125 243.785156 106.332031 C 242.980469 106.335938 242.695312 106.410156 243.148438 106.496094 M 250.800781 106.496094 C 251.25 106.585938 251.988281 106.585938 252.441406 106.496094 C 252.890625 106.410156 252.523438 106.339844 251.621094 106.339844 C 250.71875 106.339844 250.347656 106.410156 250.800781 106.496094 M 224.125 128.019531 C 223.335938 129.027344 223.273438 129.195312 223.882812 128.660156 C 224.617188 128.023438 225.578125 126.652344 225.296875 126.652344 C 225.242188 126.652344 224.710938 127.265625 224.125 128.019531 M 199.222656 141.117188 C 199.574219 141.210938 200.148438 141.210938 200.5 141.117188 C 200.851562 141.027344 200.5625 140.953125 199.859375 140.953125 C 199.160156 140.953125 198.871094 141.027344 199.222656 141.117188 M 147.28125 141.871094 C 155.550781 141.925781 169.082031 141.925781 177.351562 141.871094 C 185.621094 141.816406 178.855469 141.769531 162.316406 141.769531 C 145.777344 141.769531 139.011719 141.816406 147.28125 141.871094 M 234.210938 149.613281 C 234.210938 150.316406 234.285156 150.605469 234.375 150.253906 C 234.46875 149.902344 234.46875 149.328125 234.375 148.976562 C 234.285156 148.625 234.210938 148.914062 234.210938 149.613281 M 78.660156 166.472656 L 74.65625 170.574219 L 78.757812 166.570312 C 82.566406 162.851562 83.023438 162.371094 82.757812 162.371094 C 82.707031 162.371094 80.859375 164.21875 78.660156 166.472656 M 70.097656 176.222656 C 69.671875 176.824219 69.402344 177.316406 69.503906 177.316406 C 69.605469 177.316406 70.035156 176.824219 70.464844 176.222656 C 70.890625 175.621094 71.160156 175.128906 71.058594 175.128906 C 70.960938 175.128906 70.527344 175.621094 70.097656 176.222656 M 142.550781 191.433594 C 143.207031 191.511719 144.1875 191.511719 144.738281 191.429688 C 145.285156 191.347656 144.75 191.28125 143.546875 191.28125 C 142.34375 191.28125 141.894531 191.351562 142.550781 191.433594 M 154.046875 191.441406 C 156.613281 191.503906 160.714844 191.503906 163.160156 191.441406 C 165.601562 191.378906 163.503906 191.324219 158.492188 191.324219 C 153.480469 191.328125 151.476562 191.378906 154.046875 191.441406 M 177.527344 191.429688 C 178.175781 191.511719 179.324219 191.511719 180.078125 191.433594 C 180.835938 191.355469 180.304688 191.289062 178.902344 191.289062 C 177.5 191.285156 176.878906 191.351562 177.527344 191.429688 M 54.171875 222.515625 C 54.171875 223.617188 54.238281 224.070312 54.324219 223.515625 C 54.40625 222.964844 54.40625 222.0625 54.324219 221.511719 C 54.238281 220.960938 54.171875 221.414062 54.171875 222.515625 M 54.175781 227.4375 C 54.175781 228.640625 54.246094 229.085938 54.324219 228.433594 C 54.40625 227.777344 54.40625 226.792969 54.320312 226.246094 C 54.238281 225.699219 54.171875 226.234375 54.175781 227.4375 M 56.988281 247.140625 C 56.957031 248.261719 57.878906 248.789062 58.402344 247.945312 C 58.867188 247.203125 58.859375 247.167969 58.339844 247.59375 C 57.859375 247.992188 57.703125 247.964844 57.382812 247.414062 C 57.171875 247.050781 56.996094 246.929688 56.988281 247.140625 " fill-opacity="1" fill-rule="evenodd"/><g fill="#ffffff" fill-opacity="1"><g transform="translate(324.486566, 227.999967)"><g><path d="M 159.75 -125 L 188.25 -125 L 149 0 L 122.5 0 L 96.5 -84.25 L 70.25 0 L 43.75 0 L 4.5 -125 L 33 -125 L 57.25 -38.75 L 83.5 -125 L 109.25 -125 L 135.25 -38.75 Z M 159.75 -125 "/></g></g></g><g fill="#ffffff" fill-opacity="1"><g transform="translate(516.984321, 227.999967)"><g><path d="M 41.375 -148.875 C 37.957031 -145.457031 33.914062 -143.75 29.25 -143.75 C 24.582031 -143.75 20.539062 -145.457031 17.125 -148.875 C 13.707031 -152.289062 12 -156.332031 12 -161 C 12 -165.664062 13.664062 -169.707031 17 -173.125 C 20.332031 -176.539062 24.414062 -178.25 29.25 -178.25 C 34.082031 -178.25 38.164062 -176.539062 41.5 -173.125 C 44.832031 -169.707031 46.5 -165.664062 46.5 -161 C 46.5 -156.332031 44.789062 -152.289062 41.375 -148.875 Z M 15.75 0 L 15.75 -125 L 42.75 -125 L 42.75 0 Z M 15.75 0 "/></g></g></g><g fill="#ffffff" fill-opacity="1"><g transform="translate(575.233621, 227.999967)"><g><path d="M 81.5 -128.25 C 95.832031 -128.25 107.414062 -123.664062 116.25 -114.5 C 125.082031 -105.332031 129.5 -92.75 129.5 -76.75 L 129.5 0 L 102.5 0 L 102.5 -74 C 102.5 -83.332031 100 -90.5 95 -95.5 C 90 -100.5 83.164062 -103 74.5 -103 C 65 -103 57.332031 -100.039062 51.5 -94.125 C 45.664062 -88.207031 42.75 -79.164062 42.75 -67 L 42.75 0 L 15.75 0 L 15.75 -125 L 42.75 -125 L 42.75 -109 C 50.914062 -121.832031 63.832031 -128.25 81.5 -128.25 Z M 81.5 -128.25 "/></g></g></g><g fill="#ffffff" fill-opacity="1"><g transform="translate(717.981969, 227.999967)"><g><path d="M 114.75 -175 L 141.75 -175 L 141.75 0 L 114.75 0 L 114.75 -18 C 104.582031 -3.832031 90 3.25 71 3.25 C 53.832031 3.25 39.164062 -3.125 27 -15.875 C 14.832031 -28.625 8.75 -44.164062 8.75 -62.5 C 8.75 -81 14.832031 -96.582031 27 -109.25 C 39.164062 -121.914062 53.832031 -128.25 71 -128.25 C 90 -128.25 104.582031 -121.25 114.75 -107.25 Z M 47 -33.875 C 54.5 -26.289062 63.914062 -22.5 75.25 -22.5 C 86.582031 -22.5 96 -26.289062 103.5 -33.875 C 111 -41.457031 114.75 -51 114.75 -62.5 C 114.75 -74 111 -83.539062 103.5 -91.125 C 96 -98.707031 86.582031 -102.5 75.25 -102.5 C 63.914062 -102.5 54.5 -98.707031 47 -91.125 C 39.5 -83.539062 35.75 -74 35.75 -62.5 C 35.75 -51 39.5 -41.457031 47 -33.875 Z M 47 -33.875 "/></g></g></g><g clip-path="url(#6a0c7a4cdb)"><g clip-path="url(#114ac0d705)"><path stroke-linecap="butt" transform="matrix(0.749426, 0, 0, 0.75, 897.374009, 22.866591)" fill="none" stroke-linejoin="miter" d="M 49.997924 0.000795916 L 256.233905 0.000795916 C 283.848791 0.000795916 306.235718 22.386215 306.235718 50.000801 L 306.235718 253.995613 C 306.235718 281.610199 283.848791 303.995618 256.233905 303.995618 L 49.997924 303.995618 C 22.383037 303.995618 0.00132252 281.610199 0.00132252 253.995613 L 0.00132252 50.000801 C 0.00132252 22.386215 22.383037 0.000795916 49.997924 0.000795916 Z M 49.997924 0.000795916 " stroke="#ffffff" stroke-width="24" stroke-opacity="1" stroke-miterlimit="4"/></g></g><g fill="#ffffff" fill-opacity="1"><g transform="translate(927.649982, 203.308014)"><g><path d="M 96.40625 -9.9375 C 87.25 -1.695312 75.425781 2.421875 60.9375 2.421875 C 46.445312 2.421875 34.617188 -1.695312 25.453125 -9.9375 C 16.285156 -18.175781 11.703125 -29.226562 11.703125 -43.09375 L 11.703125 -130.03125 L 33.0625 -130.03125 L 33.0625 -44.390625 C 33.0625 -36.472656 35.382812 -30.160156 40.03125 -25.453125 C 44.675781 -20.742188 51.640625 -18.390625 60.921875 -18.390625 C 70.210938 -18.390625 77.179688 -20.742188 81.828125 -25.453125 C 86.472656 -30.160156 88.796875 -36.472656 88.796875 -44.390625 L 88.796875 -130.03125 L 110.15625 -130.03125 L 110.15625 -43.09375 C 110.15625 -29.226562 105.570312 -18.175781 96.40625 -9.9375 Z M 96.40625 -9.9375 "/></g></g></g><g fill="#ffffff" fill-opacity="1"><g transform="translate(1049.329048, 203.308014)"><g><path d="M 13 -130.03125 L 34.359375 -130.03125 L 34.359375 0 L 13 0 Z M 13 -130.03125 "/></g></g></g></svg>